<svg width="150" height="70" viewBox="0 0 150 70" fill="none" xmlns="http://www.w3.org/2000/svg">
<rect width="150" height="70" rx="7" fill="#495464"/>
<path d="M31.8407 42.4755C30.9607 42.4755 30.1007 42.3889 29.2607 42.2155C28.4341 42.0555 27.7741 41.8289 27.2807 41.5355L27.9607 38.3555C28.6007 38.7289 29.2874 39.0089 30.0207 39.1955C30.7674 39.3822 31.4941 39.4755 32.2007 39.4755C32.9207 39.4755 33.4741 39.3555 33.8607 39.1155C34.2607 38.8622 34.4607 38.5155 34.4607 38.0755C34.4607 37.7422 34.3007 37.4622 33.9807 37.2355C33.6607 37.0089 33.0607 36.6955 32.1807 36.2955C31.1807 35.8422 30.4474 35.3489 29.9807 34.8155C29.5141 34.2689 29.2807 33.6355 29.2807 32.9155C29.2807 32.6755 29.3141 32.3755 29.3807 32.0155C29.6474 30.7755 30.3274 29.7822 31.4207 29.0355C32.5141 28.2755 33.8941 27.8955 35.5607 27.8955C36.4141 27.8955 37.1607 27.9622 37.8007 28.0955C38.4407 28.2289 39.0341 28.4422 39.5807 28.7355L38.9207 31.8355C37.8941 31.2222 36.7807 30.9155 35.5807 30.9155C34.9407 30.9155 34.4074 31.0222 33.9807 31.2355C33.5674 31.4355 33.3141 31.7289 33.2207 32.1155C33.2074 32.1689 33.2007 32.2422 33.2007 32.3355C33.2007 32.6422 33.3674 32.9089 33.7007 33.1355C34.0474 33.3622 34.6607 33.6622 35.5407 34.0355C36.5807 34.5022 37.3274 34.9889 37.7807 35.4955C38.2341 35.9889 38.4607 36.5955 38.4607 37.3155C38.4607 37.6222 38.4207 37.9689 38.3407 38.3555C38.0741 39.6755 37.4207 40.6955 36.3807 41.4155C35.3407 42.1222 33.8274 42.4755 31.8407 42.4755ZM41.9075 28.1955H48.1875C49.5208 28.1955 50.5741 28.5289 51.3475 29.1955C52.1341 29.8622 52.5275 30.7622 52.5275 31.8955C52.5275 32.2422 52.4875 32.6089 52.4075 32.9955C52.1941 34.0355 51.7808 34.9222 51.1675 35.6555C50.5675 36.3889 49.8141 36.9355 48.9075 37.2955L50.3475 42.1755H46.7075L45.4075 37.7955H43.4075L42.4875 42.1755H38.9475L41.9075 28.1955ZM46.1675 34.8155C46.8741 34.8155 47.4475 34.6822 47.8875 34.4155C48.3275 34.1355 48.6208 33.6622 48.7675 32.9955C48.8208 32.7022 48.8475 32.5089 48.8475 32.4155C48.8475 31.9489 48.6875 31.6289 48.3675 31.4555C48.0608 31.2689 47.6075 31.1755 47.0075 31.1755H44.8075L44.0475 34.8155H46.1675ZM56.5164 42.4755C54.9697 42.4755 53.7564 42.1222 52.8764 41.4155C52.0097 40.6955 51.5764 39.7289 51.5764 38.5155C51.5764 38.1555 51.6164 37.7755 51.6964 37.3755C52.0164 35.8289 52.783 34.5955 53.9964 33.6755C55.2097 32.7422 56.7764 32.2755 58.6964 32.2755C60.2564 32.2755 61.4697 32.6422 62.3364 33.3755C63.2164 34.0955 63.6564 35.0622 63.6564 36.2755C63.6564 36.6222 63.6164 36.9889 63.5364 37.3755C63.203 38.9222 62.423 40.1622 61.1964 41.0955C59.983 42.0155 58.423 42.4755 56.5164 42.4755ZM57.0964 39.7355C57.803 39.7355 58.4097 39.5289 58.9164 39.1155C59.4364 38.6889 59.7764 38.1089 59.9364 37.3755C59.9897 37.1489 60.0164 36.9022 60.0164 36.6355C60.0164 35.5555 59.383 35.0155 58.1164 35.0155C57.4097 35.0155 56.7964 35.2289 56.2764 35.6555C55.7697 36.0689 55.443 36.6422 55.2964 37.3755C55.2297 37.6822 55.1964 37.9422 55.1964 38.1555C55.1964 39.2089 55.8297 39.7355 57.0964 39.7355ZM67.0484 27.3955H70.5684L68.6484 36.4355L72.6284 32.5755H76.6684L71.8484 37.2155L75.1484 42.1755H71.1084L68.3084 37.9555L67.4284 42.1755H63.9084L67.0484 27.3955ZM77.7251 34.7155H84.8451L84.2451 37.5155H77.1251L77.7251 34.7155ZM88.9501 42.4755C88.0701 42.4755 87.2101 42.3889 86.3701 42.2155C85.5435 42.0555 84.8835 41.8289 84.3901 41.5355L85.0701 38.3555C85.7101 38.7289 86.3968 39.0089 87.1301 39.1955C87.8768 39.3822 88.6035 39.4755 89.3101 39.4755C90.0301 39.4755 90.5835 39.3555 90.9701 39.1155C91.3701 38.8622 91.5701 38.5155 91.5701 38.0755C91.5701 37.7422 91.4101 37.4622 91.0901 37.2355C90.7701 37.0089 90.1701 36.6955 89.2901 36.2955C88.2901 35.8422 87.5568 35.3489 87.0901 34.8155C86.6235 34.2689 86.3901 33.6355 86.3901 32.9155C86.3901 32.6755 86.4235 32.3755 86.4901 32.0155C86.7568 30.7755 87.4368 29.7822 88.5301 29.0355C89.6235 28.2755 91.0035 27.8955 92.6701 27.8955C93.5235 27.8955 94.2701 27.9622 94.9101 28.0955C95.5501 28.2289 96.1435 28.4422 96.6901 28.7355L96.0301 31.8355C95.0035 31.2222 93.8901 30.9155 92.6901 30.9155C92.0501 30.9155 91.5168 31.0222 91.0901 31.2355C90.6768 31.4355 90.4235 31.7289 90.3301 32.1155C90.3168 32.1689 90.3101 32.2422 90.3101 32.3355C90.3101 32.6422 90.4768 32.9089 90.8101 33.1355C91.1568 33.3622 91.7701 33.6622 92.6501 34.0355C93.6901 34.5022 94.4368 34.9889 94.8901 35.4955C95.3435 35.9889 95.5701 36.5955 95.5701 37.3155C95.5701 37.6222 95.5301 37.9689 95.4501 38.3555C95.1835 39.6755 94.5301 40.6955 93.4901 41.4155C92.4501 42.1222 90.9368 42.4755 88.9501 42.4755ZM99.0168 28.1955H105.297C106.63 28.1955 107.684 28.5289 108.457 29.1955C109.244 29.8622 109.637 30.7622 109.637 31.8955C109.637 32.2422 109.597 32.6089 109.517 32.9955C109.304 34.0355 108.89 34.9222 108.277 35.6555C107.677 36.3889 106.924 36.9355 106.017 37.2955L107.457 42.1755H103.817L102.517 37.7955H100.517L99.5968 42.1755H96.0568L99.0168 28.1955ZM103.277 34.8155C103.984 34.8155 104.557 34.6822 104.997 34.4155C105.437 34.1355 105.73 33.6622 105.877 32.9955C105.93 32.7022 105.957 32.5089 105.957 32.4155C105.957 31.9489 105.797 31.6289 105.477 31.4555C105.17 31.2689 104.717 31.1755 104.117 31.1755H101.917L101.157 34.8155H103.277ZM114.547 42.4755C113 42.4755 111.767 42.1355 110.847 41.4555C109.927 40.7622 109.467 39.7955 109.467 38.5555C109.467 38.1955 109.507 37.8155 109.587 37.4155C109.933 35.8022 110.66 34.5422 111.767 33.6355C112.887 32.7289 114.38 32.2755 116.247 32.2755C117.167 32.2755 117.967 32.4489 118.647 32.7955C119.327 33.1422 119.847 33.6155 120.207 34.2155C120.567 34.8155 120.747 35.4889 120.747 36.2355C120.747 36.5555 120.707 36.8955 120.627 37.2555L120.347 38.5555H112.687C112.727 39.5689 113.68 40.0755 115.547 40.0755C116.173 40.0755 116.827 40.0222 117.507 39.9155C118.187 39.8089 118.787 39.6622 119.307 39.4755L118.827 41.7955C118.293 41.9955 117.64 42.1555 116.867 42.2755C116.093 42.4089 115.32 42.4755 114.547 42.4755ZM117.487 36.3555C117.5 36.2755 117.507 36.1689 117.507 36.0355C117.507 35.5955 117.367 35.2622 117.087 35.0355C116.807 34.8089 116.333 34.6955 115.667 34.6955C115.027 34.6955 114.487 34.8489 114.047 35.1555C113.607 35.4489 113.307 35.8489 113.147 36.3555H117.487Z" fill="white"/>
<rect x="7.81372" y="0.377441" width="5.04202" height="69.0678" fill="#D9D9D9"/>
<rect x="137.646" y="0.377441" width="5.04202" height="69.0678" fill="#D9D9D9"/>
</svg>
