<svg width="20" height="20" viewBox="0 0 20 20" fill="none" xmlns="http://www.w3.org/2000/svg">
<rect width="20" height="20" rx="5" fill="white"/>
<rect x="2.66663" y="2.66663" width="5.33333" height="5.33333" rx="2.66667" fill="#808080"/>
<rect x="2.66663" y="12" width="5.33333" height="5.33333" rx="2.66667" fill="#808080"/>
<path d="M12 5.33329C12 3.86053 13.1939 2.66663 14.6667 2.66663C16.1394 2.66663 17.3333 3.86053 17.3333 5.33329C17.3333 6.80605 16.1394 7.99996 14.6667 7.99996C13.1939 7.99996 12 6.80605 12 5.33329Z" fill="#808080"/>
<path d="M12 14.6667C12 13.1939 13.1939 12 14.6667 12C16.1394 12 17.3333 13.1939 17.3333 14.6667C17.3333 16.1394 16.1394 17.3333 14.6667 17.3333C13.1939 17.3333 12 16.1394 12 14.6667Z" fill="#808080"/>
</svg>
